# Blender 3.3.1
# www.blender.org
mtllib blackboard.mtl
o Cube
v -3.000916 -1.000000 0.021840
v -3.000916 1.000000 0.021840
v -3.000916 -1.000000 -0.021840
v -3.000916 1.000000 -0.021840
v 3.002683 -1.000000 0.021840
v 3.002683 1.000000 0.021840
v 3.002683 -1.000000 -0.021840
v 3.002683 1.000000 -0.021840
vn -1.0000 -0.0000 -0.0000
vn -0.0000 -0.0000 -1.0000
vn 1.0000 -0.0000 -0.0000
vn -0.0000 -0.0000 1.0000
vn -0.0000 -1.0000 -0.0000
vn -0.0000 1.0000 -0.0000
vt 0.031664 0.017711
vt 0.031664 0.328789
vt 0.031664 0.017711
vt 0.031664 0.328789
vt 0.965459 0.017711
vt 0.965459 0.328789
vt 0.965459 0.017711
vt 0.965459 0.328789
s 0
f 1/1/1 2/2/1 4/4/1 3/3/1
f 3/3/2 4/4/2 8/8/2 7/7/2
f 7/7/3 8/8/3 6/6/3 5/5/3
f 5/5/4 6/6/4 2/2/4 1/1/4
f 3/3/5 7/7/5 5/5/5 1/1/5
f 8/8/6 4/4/6 2/2/6 6/6/6
o Cube.001
v -3.095613 -1.080338 0.031342
v -3.095613 1.080338 0.031342
v -3.095613 -1.080338 -0.031342
v -3.095613 1.080338 -0.031342
v 3.097380 -1.080338 0.031342
v 3.097380 1.080338 0.031342
v 3.097380 -1.080338 -0.031342
v 3.097380 1.080338 -0.031342
v -3.000916 -1.000000 -0.031342
v -3.000916 1.000000 -0.031342
v 3.002683 -1.000000 -0.031342
v 3.002683 1.000000 -0.031342
v 3.002683 -1.000000 0.031342
v 3.002683 1.000000 0.031342
v -3.000916 -1.000000 0.031342
v -3.000916 1.000000 0.031342
vn -1.0000 -0.0000 -0.0000
vn -0.0000 -0.0000 -1.0000
vn 1.0000 -0.0000 -0.0000
vn -0.0000 -0.0000 1.0000
vn -0.0000 -1.0000 -0.0000
vn -0.0000 1.0000 -0.0000
vt 0.273033 0.559384
vt 0.273033 0.700798
vt 0.025859 0.983627
vt 0.273033 0.700798
vt 0.273033 0.842213
vt 0.767382 0.700798
vt 0.025859 0.559384
vt 0.273033 0.700798
vt 0.025859 0.842213
vt 0.025859 0.700798
vt 0.273033 0.842213
vt 0.767382 0.559384
vt 0.273033 0.559384
vt 0.520207 0.700798
vt 0.273033 0.983627
vt 0.273033 0.700798
vt 0.520207 0.842213
vt 0.520207 0.700798
vt 0.025859 0.700798
vt 0.520207 0.559384
vt 0.273033 0.842213
vt 0.025859 0.842213
vt 0.520207 0.700798
vt 0.520207 0.559384
vt 0.269254 0.706056
vt 0.970235 0.983627
vt 0.759822 0.700798
vt 0.269254 0.836955
vt 0.741442 0.983627
vt 0.273033 0.842213
vt 0.029638 0.706056
vt 0.741442 0.842213
vt 0.520207 0.700798
vt 0.029638 0.836955
vt 0.512648 0.842213
vt 0.516428 0.706056
vt 0.741442 0.983627
vt 0.520207 0.842213
vt 0.516428 0.836955
vt 0.512648 0.983627
vt 0.276813 0.706056
vt 0.970235 0.842213
vt 0.759822 0.842213
vt 0.276813 0.836955
vt 0.741442 0.842213
vt 0.273033 0.983627
s 0
usemtl 
f 9/9/7 10/12/7 12/18/7 11/15/7
f 16/30/8 15/27/8 19/39/8 20/42/8
f 15/27/8 11/16/8 12/19/8 16/30/8 20/42/8 18/36/8 17/33/8 19/39/8
f 15/28/9 16/31/9 14/24/9 13/21/9
f 23/49/10 9/10/10 13/22/10 14/25/10 10/13/10 24/52/10 22/47/10 21/44/10
f 10/13/10 9/10/10 23/49/10 24/52/10
f 11/17/11 15/29/11 13/23/11 9/11/11
f 16/32/12 12/20/12 10/14/12 14/26/12
f 23/50/9 17/34/9 18/37/9 24/53/9
f 22/48/7 20/43/7 19/40/7 21/45/7
f 21/46/12 19/41/12 17/35/12 23/51/12
f 18/38/11 20/43/11 22/48/11 24/54/11
